<svg width="65" height="65" viewBox="0 0 65 65" fill="none" xmlns="http://www.w3.org/2000/svg">
<g clip-path="url(#clip0_182_396)">
<path d="M65 0H0V65H65V0Z" fill="#D7E3F4"/>
<path opacity="0.7757" d="M18.8666 51.0033C18.8666 51.0033 9.39808 53.1931 2.06611 56.4595C1.06769 56.9043 0.432933 56.9768 -0.0340359 57.6456C-0.0190156 59.501 -0.116772 65.1899 0.000344031 65.0888L65.0691 65.0296C65.0718 63.2801 65.1494 57.525 65.0691 56.6677C64.5417 56.017 64.4494 55.9852 63.761 55.6299C63.0726 55.2738 43.1042 50.0551 43.1042 50.0551L18.8666 51.0033Z" fill="#87AADE"/>
<path d="M46.1493 35.3643C46.1807 35.2904 46.2178 35.2641 46.2442 35.1952C46.2882 35.0769 46.3046 34.9522 46.3296 34.8277C46.3639 34.6576 46.4028 34.487 46.4363 34.3132C46.4718 34.1301 46.4991 33.9388 46.5431 33.7619C46.587 33.5851 46.6439 33.4225 46.7137 33.2658C46.8142 33.0394 46.8981 32.836 46.9698 32.641C47.0847 32.3282 47.1933 31.9528 47.2685 31.5568C47.325 31.2637 47.3761 30.9509 47.3112 30.638C47.2747 30.4431 47.256 30.2728 47.0454 30.1701C46.967 30.1353 46.8721 30.1152 46.7893 30.115C46.6515 30.1144 46.5255 30.1456 46.4053 30.1885C46.2519 30.2421 46.1027 30.3311 45.9786 30.409C45.8737 30.4748 45.7161 30.6087 45.6052 30.6608L45.3044 30.6956C45.3294 30.6356 45.2742 30.5174 45.2922 30.4457C45.5305 29.4568 45.9521 26.1046 45.933 24.4635C45.8894 20.7225 47.1901 19.2349 44.0505 15.9666C43.2612 15.1448 42.0603 14.1811 41.0295 13.5685C41.5723 13.6905 41.9943 13.7449 42.604 14.004C41.263 13.0707 40.0727 12.5614 39.0667 12.115C39.5509 12.1793 40.169 12.3143 40.6732 12.3833C37.4218 10.999 35.2067 10.8364 33.0801 10.8489L32.5424 10.8985C31.6068 10.9038 31.2247 10.9471 30.5541 11.0694C28.4577 10.9887 25.5141 10.7651 22.5514 12.0029C22.9706 11.9827 23.3259 11.969 23.6608 11.9661C22.3339 12.4988 20.8564 13.1862 19.1997 14.7299C19.5746 14.5527 19.9032 14.3996 20.2237 14.2705C18.9585 15.2997 17.5517 16.9293 16.8741 18.4198C16.1311 20.0542 16.2945 27.2583 16.5839 28.5085C16.8509 29.6616 16.5946 30.41 16.566 30.5101C16.5553 30.5049 16.5553 30.496 16.5446 30.4918C16.3536 30.4127 16.056 30.3234 15.8261 30.412C15.598 30.5161 15.5153 30.6999 15.4706 30.8956C15.3893 31.219 15.4812 31.524 15.556 31.8143C15.6752 32.2987 15.8171 32.7704 15.947 33.1375C15.9944 33.2712 16.0536 33.4056 16.1107 33.5601C16.1672 33.7123 16.218 33.8749 16.2458 34.0501C16.2737 34.2253 16.2852 34.4236 16.3026 34.6075C16.3183 34.777 16.3133 34.9297 16.331 35.0975C16.3432 35.2206 16.3462 35.3453 16.3807 35.4651C16.4185 35.5904 16.4766 35.6943 16.5502 35.7935C16.5563 35.8014 16.566 35.8228 16.5715 35.8303C16.5868 35.9322 16.7112 36.0758 16.7133 36.2982C16.7148 36.4704 16.7844 36.6739 16.7635 36.8734C16.7431 37.0729 16.7097 37.2686 16.6781 37.4558C16.6549 37.5909 16.6369 37.7198 16.6322 37.8361C16.6276 37.919 16.6398 38.0172 16.6536 38.1117C16.6841 38.3316 16.7658 38.5344 16.9211 38.7379C17.0121 38.859 16.9609 38.8664 17.1114 38.9297C17.2401 38.9827 17.3563 39.0205 17.4823 39.0343C17.6462 39.0525 17.8118 39.0716 17.9452 39.1078C18.1276 39.1574 18.262 39.192 18.405 39.2888C18.6028 39.4225 18.7704 39.515 19.0552 39.6949C19.078 39.7566 19.1249 39.8047 19.1482 39.8715C19.2277 40.0989 19.3508 40.379 19.4896 40.6433C19.7007 41.0449 19.9993 41.4994 20.2795 41.9176L20.2902 42.1131C21.3538 46.1868 20.5937 49.5246 18.5432 52.0646C22.0789 58.2947 27.6453 57.7316 32.559 57.9385C37.3782 58.1415 44.6789 54.5063 44.1875 52.0279C42.5348 49.6146 42.2096 46.224 42.6645 43.2355C42.7925 42.4216 42.8927 42.1012 43.1208 41.6857C43.3302 41.2859 43.4703 41.0626 43.6672 40.7112C43.939 40.2248 44.0852 39.7302 44.1793 39.3146C44.193 39.2559 44.2097 39.1821 44.2377 39.1077C44.3208 39.057 44.4249 39.0114 44.4747 38.9839C44.6216 38.9024 44.8385 38.7917 45.0934 38.7082C45.1689 38.6838 45.2469 38.6611 45.3281 38.6163C45.4152 38.5668 45.4848 38.4861 45.5415 38.4142C45.6969 38.2198 45.7977 37.9986 45.8402 37.771C45.8798 37.5534 45.9236 37.3649 45.9156 37.1985C45.915 37.1791 45.9163 37.1637 45.9156 37.1434C45.905 36.928 45.8345 36.6514 45.8614 36.3899C45.8877 36.1314 45.9509 35.8753 46.0108 35.6916C46.0706 35.508 46.1108 35.4585 46.1506 35.3645L46.1506 35.3646V35.3646H46.1506H46.1506H46.1506L46.1493 35.3643Z" fill="#87AADE"/>
<path d="M32.9645 10.7077C32.0289 10.713 31.2243 10.7874 30.5537 10.9098C28.3132 10.6739 24.7816 10.7742 21.9556 12.1594C22.3749 12.1392 22.7301 12.1254 23.065 12.1227C21.7382 12.6553 20.22 13.5743 18.5634 15.1179C18.9383 14.9408 19.2883 14.7876 19.6087 14.6585C18.3435 15.6878 17.3208 16.9351 16.6432 18.4256C15.9002 20.06 16.1404 27.2642 16.4298 28.5144C16.6968 29.6675 16.5225 30.3437 16.4939 30.4438C16.4832 30.4386 16.4832 30.4298 16.4725 30.4255C16.2815 30.3464 16.0197 30.2818 15.7898 30.3703C15.5617 30.4743 15.4718 30.6891 15.4271 30.8848C15.3459 31.2082 15.4378 31.5317 15.5125 31.822C15.6318 32.3064 15.788 32.7596 15.9179 33.1267C15.9653 33.2604 16.0103 33.4131 16.0672 33.5677C16.1238 33.7199 16.1674 33.8887 16.1951 34.0638C16.223 34.239 16.2418 34.4128 16.2592 34.5967C16.2749 34.7662 16.2846 34.9435 16.3019 35.1113C16.3141 35.2343 16.3307 35.3591 16.3659 35.4788C16.4037 35.6041 16.463 35.7103 16.5366 35.8096C16.5427 35.8174 16.5521 35.8201 16.5579 35.828C16.5732 35.9299 16.6679 36.0833 16.6703 36.3057C16.6718 36.478 16.7347 36.6759 16.7139 36.8754C16.6935 37.0749 16.6601 37.2762 16.6285 37.4634C16.6054 37.5985 16.5904 37.733 16.5858 37.8493C16.5812 37.9322 16.595 38.012 16.6072 38.1066C16.6377 38.3265 16.6735 38.5325 16.8288 38.7361C16.9199 38.8572 17.0113 38.9107 17.1618 38.9741C17.2905 39.027 17.4923 39.0842 17.6183 39.098C17.7821 39.1162 17.9543 39.1353 18.0876 39.1715C18.2701 39.221 18.3972 39.2833 18.493 39.3369C18.4023 39.2777 18.2643 39.1953 18.0876 39.1348C17.953 39.0891 17.8023 39.0519 17.6396 39.0244C17.5164 39.0029 17.3096 38.9523 17.2044 38.9006C17.0808 38.8427 17.0139 38.7938 16.9355 38.681C16.8027 38.4861 16.7789 38.3075 16.7565 38.1066C16.7404 37.9688 16.7459 37.8202 16.7565 37.7023C16.7626 37.6318 16.7687 37.5648 16.7779 37.4818C16.7994 37.3035 16.8157 37.0947 16.8206 36.8937C16.8252 36.6928 16.7529 36.5007 16.7343 36.3241C16.7131 36.1222 16.6059 35.9736 16.5792 35.8647C16.6421 35.9435 16.7079 36.0189 16.7713 36.0852C16.9572 36.2809 17.1011 36.4396 17.1979 36.563C17.2948 36.6863 17.3472 36.7651 17.3472 36.7651C17.3472 36.7651 17.3091 36.6904 17.2191 36.563C17.1293 36.4356 16.9906 36.2523 16.8138 36.0485C16.7424 35.9658 16.6459 35.8896 16.5791 35.7912C16.5123 35.6928 16.458 35.578 16.4298 35.4604C16.4019 35.3477 16.3944 35.2174 16.3871 35.0929C16.3764 34.9268 16.3749 34.7688 16.3658 34.5968C16.3566 34.4164 16.3458 34.2258 16.3231 34.0455C16.3005 33.8652 16.2735 33.6988 16.2163 33.531C16.1294 33.2766 16.053 33.0257 15.9817 32.8143C15.8801 32.5135 15.7607 32.1736 15.6616 31.8036C15.6392 31.7176 15.6201 31.6338 15.5976 31.5464C15.6595 31.6825 15.736 31.75 15.8536 31.8587C16.1675 32.1491 16.387 31.8771 16.387 31.8771C16.6429 32.0475 17.0801 32.5867 17.8378 34.0271C17.7804 33.9293 17.6817 33.8917 17.5817 33.8434C17.3988 33.755 17.0371 33.9048 17.0057 34.1374C16.9511 34.5414 17.3233 35.6437 17.3684 35.4237C17.4022 35.2586 17.164 34.7053 17.3043 34.4498C17.3774 34.3168 17.6735 34.2816 17.9017 34.3579C17.962 34.3781 17.9399 34.2319 17.9017 34.1373C17.9007 34.1334 17.9027 34.1217 17.9017 34.1189C17.3174 32.7754 16.7764 31.8369 16.323 31.3809C16.0544 31.1109 15.7716 30.9691 15.6403 30.9767C15.5871 30.9806 15.5537 31.0584 15.5335 31.1237C15.5329 31.0529 15.5381 30.9911 15.5549 30.9215C15.602 30.7372 15.6738 30.5388 15.8536 30.4621C16.0232 30.3807 16.2451 30.4247 16.4296 30.4989C17.2253 30.8187 17.473 31.2913 17.8377 31.868C18.017 32.1515 18.3981 33.0699 18.6164 33.825C18.5062 33.0148 18.2405 32.3243 18.1471 32.0792L19.3738 32.0976C19.3845 32.3075 19.4042 32.5145 19.4592 32.7224C19.5457 33.0544 19.7318 33.3859 20.0353 33.6228C20.4431 33.9328 20.9661 34.0602 21.4647 34.174C22.2737 34.363 23.1052 34.4483 23.9396 34.4497C25.0375 34.4523 26.1402 34.383 27.2251 34.2292C27.6101 34.1747 27.9989 34.1081 28.3772 34.0087C28.5041 33.9754 28.6363 33.9497 28.7613 33.8983C28.8375 33.8694 28.9231 33.8228 28.996 33.7513C29.1963 33.5376 29.2886 33.2778 29.3586 33.0347C29.4431 32.7523 29.4893 32.4699 29.5507 32.1894C29.5932 31.9926 29.5851 31.7746 29.5293 31.583C30.1658 31.1718 30.9399 31.1239 31.3215 31.1236C31.7185 31.1232 32.3833 31.2485 33.0069 31.5278C33.0079 31.607 33.0115 31.6885 33.0282 31.7667C33.0938 32.0465 33.174 32.3307 33.2629 32.612C33.3367 32.8543 33.4219 33.1172 33.6256 33.3287C33.6996 33.3993 33.7836 33.4477 33.8603 33.4757C33.9861 33.5256 34.117 33.5542 34.2443 33.5859C34.6241 33.681 35.0106 33.738 35.3964 33.788C36.4837 33.9294 37.5842 33.9865 38.682 33.9718C39.5161 33.9613 40.3508 33.8759 41.1569 33.6778C41.6537 33.5582 42.1834 33.4044 42.5863 33.0897C42.8861 32.8494 43.0597 32.5223 43.141 32.1893C43.1933 31.9788 43.2203 31.7582 43.2264 31.5462L44.9107 31.2338C44.7185 31.5563 44.5527 32.0513 44.3998 32.5752C44.6183 32.0657 44.9675 31.4466 45.1892 31.1236C45.2445 31.0428 45.3867 30.8504 45.5305 30.7377C45.6749 30.6251 45.8387 30.5132 46.0212 30.4069C46.147 30.334 46.2828 30.2681 46.4266 30.2232C46.6155 30.168 46.8309 30.1032 46.9813 30.1864C47.0807 30.2306 47.1537 30.3206 47.1947 30.4253C47.1514 30.4073 47.0904 30.406 47.024 30.4069C46.8679 30.4095 46.6416 30.4678 46.3839 30.6458C45.8584 31.0085 45.3941 31.8083 44.6771 33.7697C44.6665 33.7991 44.6665 33.8315 44.6558 33.8616C44.6467 33.9149 44.6573 33.984 44.6985 33.9719C45.0728 33.8589 45.3557 33.968 45.4026 34.2292C45.4521 34.5057 45.0513 34.9952 45.1465 35.0562C45.2443 35.1187 45.3781 34.8555 45.4879 34.6335C45.6123 34.3822 45.714 34.1573 45.7012 33.9536C45.6709 33.469 45.2435 33.2211 44.8905 33.5126C45.7128 31.7144 46.0786 31.316 46.3413 31.1604C46.3413 31.1604 46.4478 31.3791 46.832 31.1604C47.0017 31.0639 47.1778 30.9486 47.2587 30.7929C47.2761 31.0386 47.224 31.2842 47.1733 31.5279C47.0689 32.0232 46.914 32.4787 46.768 32.851C46.7233 32.9649 46.6727 33.0892 46.6187 33.2186C46.5516 33.3799 46.509 33.5507 46.4694 33.7331C46.4297 33.9154 46.3912 34.1146 46.3626 34.3027C46.336 34.4772 46.3253 34.6462 46.2986 34.8173C46.2788 34.9428 46.25 35.0716 46.2132 35.1848C46.1777 35.3003 46.1084 35.39 46.0212 35.4788C45.934 35.5676 45.8342 35.6629 45.7438 35.7361C45.6333 35.8246 45.5313 35.8974 45.4451 35.975C45.359 36.0526 45.2868 36.1159 45.2318 36.1771C45.2887 36.1206 45.3808 36.0636 45.4665 35.9934C45.5563 35.9197 45.6498 35.8392 45.7652 35.7545C45.8594 35.6856 45.969 35.6051 46.0639 35.5156C46.1587 35.4261 46.2497 35.3307 46.2985 35.2032C46.3426 35.0849 46.3589 34.9601 46.3839 34.8357C46.4183 34.6655 46.4571 34.4949 46.4907 34.3211C46.5262 34.1381 46.5535 33.9467 46.5974 33.7699C46.6413 33.593 46.6982 33.4305 46.7681 33.2737C46.8686 33.0473 46.9524 32.8255 47.0241 32.6305C47.1391 32.3177 47.2476 31.9424 47.3228 31.5463C47.3794 31.2532 47.4305 30.9404 47.3655 30.6275C47.3291 30.4326 47.256 30.2157 47.0455 30.113C46.9671 30.0782 46.8722 30.0581 46.7895 30.0578C46.6516 30.0573 46.5257 30.1067 46.4054 30.1498C46.252 30.2034 46.1029 30.274 45.9788 30.3519C45.8738 30.4177 45.7931 30.4854 45.7014 30.5541L45.3813 30.5907C45.4063 30.5307 45.4282 30.4603 45.4454 30.3886C45.6836 29.3997 46.3179 26.1126 46.2987 24.4715C46.2553 20.7304 47.3048 19.1767 44.1652 15.9081C43.3759 15.0863 42.4439 14.3524 41.4131 13.7398C41.9559 13.8618 42.5314 14.0503 43.1411 14.3094C41.8001 13.3761 40.6482 12.7345 39.6422 12.288C40.1264 12.3524 40.6101 12.4212 41.1143 12.4902C37.8629 11.1059 35.0909 10.6952 32.9643 10.7077H32.9644L32.9645 10.7077ZM37.9996 17.562C39.1347 17.5628 40.0631 17.771 40.6238 18.4072C42.2546 20.258 42.71 21.6174 42.9066 23.185C43.1033 24.7527 43.0643 25.9007 43.696 26.7683C44.2836 27.5754 44.4107 30.0053 44.3147 30.6824L43.0559 30.7927C42.9939 30.6994 42.9335 30.6274 42.8426 30.5539C42.5663 30.3317 42.2168 30.1909 41.8825 30.0761C41.3093 29.8775 40.6929 29.7884 40.0903 29.7269C39.5754 29.674 39.0718 29.642 38.5543 29.635C38.144 29.6297 37.7199 29.6555 37.3169 29.6902C36.8274 29.7321 36.3509 29.7854 35.8661 29.8555C35.4186 29.9203 34.9633 29.9932 34.522 30.0944C34.3521 30.1333 34.1777 30.1874 34.01 30.2414C33.8947 30.2778 33.7813 30.3213 33.6686 30.3884C33.3919 30.5563 33.1929 30.7918 33.0926 31.0683C33.066 31.1412 33.042 31.2129 33.0285 31.2889C32.5181 31.067 31.8105 30.9366 31.2578 30.9397C30.6858 30.9437 29.8397 31.124 29.4443 31.3624C29.3293 31.1401 29.1455 30.9311 28.9109 30.7927C28.7973 30.7269 28.664 30.6992 28.5482 30.6641C28.3797 30.612 28.2066 30.5724 28.0362 30.5355C27.5933 30.4394 27.1619 30.3563 26.7134 30.2966C26.2276 30.232 25.7315 30.1858 25.2413 30.1496C24.8378 30.1197 24.4354 30.1029 24.0252 30.1128C23.5078 30.126 22.982 30.1459 22.4678 30.2048C21.8663 30.2731 21.2671 30.3856 20.697 30.5907C20.3645 30.7093 20.0098 30.8432 19.7369 31.0685C19.5628 31.2132 19.446 31.3962 19.3956 31.6014L18.6488 31.5646C18.4744 31.1435 17.9705 29.8464 18.0946 29.1213C18.216 28.41 18.7881 28.4039 18.8626 27.3756C18.9372 26.3472 18.6478 22.5705 19.0119 21.5136C19.3761 20.4568 20.9903 18.3057 22.4255 17.9303C24.9069 17.2814 26.9329 18.5332 30.5541 18.4081C32.9305 18.326 35.8329 17.5604 38 17.5628L38 17.5629L37.9996 17.562ZM37.9358 29.8195C38.1356 29.809 38.3347 29.8155 38.5332 29.8195C39.0446 29.8261 39.5625 29.8408 40.0694 29.8931C40.6643 29.9548 41.2523 30.052 41.7975 30.2422C42.1231 30.3569 42.452 30.4849 42.6935 30.6832C42.8829 30.8376 43.0096 31.0523 43.0135 31.2712C43.0211 31.5716 42.9998 31.8668 42.9281 32.1533C42.8493 32.4607 42.6977 32.759 42.4374 32.9618C42.0842 33.2455 41.6052 33.3896 41.1147 33.5131C40.3303 33.7064 39.5022 33.7776 38.6825 33.7888C37.5946 33.8032 36.5138 33.7631 35.4396 33.6234C35.0577 33.5736 34.6744 33.5132 34.3089 33.4212C34.1861 33.3902 34.0569 33.3553 33.9462 33.311C33.8748 33.2802 33.8071 33.2556 33.7755 33.2191C33.6046 33.0502 33.5339 32.8148 33.4555 32.5759C33.4448 32.5435 33.4433 32.4983 33.4343 32.4656C33.4608 32.4006 33.4515 32.2923 33.4343 32.1532C33.5479 32.1033 33.612 31.99 33.5836 31.8776C33.5547 31.7637 33.4358 31.6782 33.3062 31.6754C33.2759 31.6031 33.2538 31.5386 33.2208 31.4917C33.2209 31.4785 33.2202 31.468 33.2208 31.4549V31.3997C33.23 31.3058 33.2524 31.2143 33.2849 31.1241C33.3718 30.8847 33.5598 30.6787 33.7969 30.5361C33.8823 30.4834 33.9842 30.4441 34.0956 30.4075C34.2537 30.3564 34.4199 30.3171 34.5863 30.2789C35.0184 30.1797 35.4438 30.1044 35.8878 30.04C36.3682 29.9704 36.854 29.916 37.3386 29.8746C37.5388 29.8576 37.7362 29.8305 37.9359 29.8195V29.8194L37.9358 29.8195ZM24.0257 30.2789C24.125 30.2763 24.2248 30.278 24.3244 30.2789C24.6231 30.2829 24.9198 30.312 25.2204 30.3341C25.7055 30.3699 26.1897 30.4169 26.6712 30.4811C27.1161 30.5403 27.5604 30.6073 27.994 30.7016C28.161 30.738 28.3258 30.7809 28.4847 30.8302C28.5966 30.8655 28.6972 30.9071 28.7834 30.9588C29.0227 31.0987 29.2048 31.3084 29.2954 31.5468C29.3406 31.6666 29.3772 31.7892 29.3808 31.9143C29.3488 31.9616 29.3033 32.0256 29.2741 32.0981C29.1431 32.102 29.024 32.1849 28.9967 32.3002C28.9703 32.4115 29.0556 32.5079 29.1674 32.5575C29.1518 32.6981 29.1613 32.8231 29.1887 32.8882C29.1796 32.9221 29.1561 32.9465 29.146 32.9802C29.0713 33.2199 28.9943 33.4709 28.826 33.6417C28.795 33.6786 28.7475 33.7017 28.6767 33.7336C28.5668 33.7792 28.4364 33.8115 28.314 33.844C27.9499 33.9401 27.5857 33.9919 27.2046 34.0461C26.1326 34.1982 25.0284 34.2686 23.9403 34.2666C23.1205 34.2653 22.3167 34.1937 21.5294 34.0094C21.037 33.8914 20.5216 33.7561 20.164 33.4765C19.9006 33.2766 19.7569 32.9928 19.6733 32.6863C19.5966 32.4006 19.5845 32.0862 19.5879 31.7859C19.5885 31.5669 19.6997 31.3544 19.8866 31.1978C20.125 30.9968 20.4375 30.8752 20.7613 30.7568C21.3035 30.5604 21.8955 30.458 22.4894 30.3893C22.9954 30.3312 23.5143 30.2917 24.0255 30.279L24.0255 30.279L24.0257 30.2789Z" fill="#87AADE"/>
<path d="M25.7869 45.4884C25.7869 45.4884 28.1968 48.78 31.7085 48.8689C35.2202 48.9579 38.6629 45.3995 38.6629 45.3995C38.6629 45.3995 36.012 49.0765 32.1216 49.0765C28.2312 49.0765 25.7869 45.4884 25.7869 45.4884V45.4884Z" fill="#3062AD"/>
</g>
<defs>
<clipPath id="clip0_182_396">
<rect width="65" height="65" rx="10" fill="white"/>
</clipPath>
</defs>
</svg>
