<svg width="30" height="30" viewBox="0 0 30 30" fill="none" xmlns="http://www.w3.org/2000/svg">
<g clip-path="url(#clip0_105_89)">
<path d="M5.99738 0.0599997C7.83948 0.0437497 9.68159 0.0549997 11.5237 0.0543747C11.5281 0.465 11.5368 0.875625 11.5158 1.28625C10.2395 1.28 8.96404 1.28625 7.6886 1.29187C7.67983 1.88812 7.66316 2.48438 7.67106 3.08063C8.95176 3.08625 10.2333 3.095 11.514 3.09125C11.529 3.42875 11.5237 3.7675 11.5097 4.10563C9.67281 4.09688 7.83597 4.10062 5.99913 4.10187C6.00352 2.75437 6.00702 1.4075 5.99738 0.0599997Z" fill="black"/>
<path d="M12.1807 0.0559992C14.0456 0.0534992 15.9105 0.0453742 17.7763 0.0603742C17.7693 0.448499 17.7746 0.835999 17.7746 1.22412C16.4175 1.221 15.0596 1.22537 13.7026 1.23662C13.7044 1.38912 13.7044 1.54162 13.7026 1.69412C15.0579 1.70975 16.4123 1.71162 17.7667 1.71725C17.7719 2.51287 17.7693 3.30787 17.7763 4.10287C15.9105 4.10037 14.0447 4.10162 12.1789 4.10787C12.1693 3.78662 12.1684 3.466 12.1816 3.14475C13.4746 3.14725 14.7684 3.1485 16.0614 3.141C16.0693 2.93412 16.0728 2.72662 16.0719 2.51975C14.7728 2.51975 13.4728 2.52287 12.1737 2.51662C12.1737 1.69662 12.1737 0.875999 12.1807 0.0559992Z" fill="black"/>
<path d="M18.4009 0.0625C20.2623 0.0625 22.1246 0.0625 23.986 0.0625C23.9939 0.4525 24.0018 0.8425 23.9842 1.23187C22.6211 1.23125 21.2579 1.23687 19.8948 1.23875C19.8983 1.39812 19.9035 1.5575 19.9149 1.71687C21.2702 1.7125 22.6255 1.72438 23.9798 1.73438C23.9921 2.52625 24.0009 3.31813 23.9851 4.11C22.1193 4.10625 20.2535 4.10625 18.3877 4.1125C18.3763 3.7925 18.3728 3.47125 18.3921 3.15125C19.6825 3.15812 20.9737 3.15687 22.2649 3.14812C22.2684 2.94062 22.2746 2.73312 22.272 2.52625C20.9763 2.535 19.6798 2.53 18.3834 2.52688C18.3834 1.70562 18.3921 0.88375 18.4009 0.0625Z" fill="black"/>
<path d="M0 5.77875C9.99298 5.77813 19.9851 5.7775 29.9781 5.77875C29.4281 10.2069 28.8868 14.635 28.314 19.0619C27.9737 21.8913 27.6228 24.7206 27.2526 27.5481C25.1202 27.9506 23.0088 28.4094 20.8772 28.8138C18.9193 29.2231 16.9456 29.5938 14.9868 30H14.9289C13.0649 29.605 11.1825 29.2575 9.31842 28.8625C7.11842 28.44 4.93772 27.9688 2.73684 27.5481C2.45 25.4288 2.19123 23.3081 1.93597 21.1875C1.45439 17.2694 0.930702 13.3538 0.467544 9.435C0.307018 8.25563 0.192105 7.0725 0 5.89563V5.77875ZM15.036 7.52563C15.0149 8.37625 15.0518 9.2275 15.0149 10.0775C11.5868 10.0688 8.1579 10.0756 4.72982 10.0781C4.7886 10.9038 4.94386 11.7238 5.10351 12.5425C8.29298 12.6269 11.4868 12.5394 14.6763 12.6075C11.886 13.4994 9.0614 14.3394 6.25877 15.2125C6.01842 15.2888 5.7614 15.3463 5.54649 15.4575C5.57018 16.3644 5.77544 17.2663 5.86579 18.1713C7.56579 18.1669 9.26491 18.1475 10.9649 18.1456C12.3272 18.1406 13.6904 18.16 15.0526 18.1388C14.9877 19.63 15.0728 21.1231 15.0088 22.6144C14.0921 22.5175 13.1868 22.3719 12.2737 22.2563C11.5535 22.1444 10.8158 22.0863 10.1061 21.9394C10.0053 21.2238 9.93509 20.5056 9.84561 19.7894C9.64035 19.7444 9.42281 19.7488 9.21053 19.7463C8.1807 19.7506 7.15 19.7438 6.1193 19.755C6.22018 21.1319 6.39386 22.5069 6.68947 23.8706C7.70526 24.0594 8.72281 24.2444 9.73684 24.4413C11.2904 24.7425 12.8632 24.9931 14.4193 25.2894C14.6044 25.3175 14.7912 25.3663 14.9833 25.355C15.0868 26.2606 15.007 27.1719 15.0263 28.08C15.3851 28.0388 15.7377 27.9756 16.0842 27.8994C19.0298 27.3294 21.9719 26.7488 24.9158 26.1731C25.0623 25.3481 25.1307 24.5175 25.2465 23.6906C25.5526 21.1769 25.8614 18.6631 26.1825 16.15C26.5588 13.275 26.8842 10.3969 27.2632 7.52188C23.1868 7.52438 19.1114 7.51625 15.036 7.52563Z" fill="#0170BA"/>
<path d="M15.036 7.52563C19.1114 7.51625 23.1868 7.52437 27.2632 7.52187C26.8842 10.3969 26.5588 13.275 26.1825 16.15C25.8614 18.6631 25.5526 21.1769 25.2465 23.6906C25.1307 24.5175 25.0623 25.3481 24.9158 26.1731C21.9719 26.7488 19.0298 27.3294 16.0842 27.8994C15.7377 27.9756 15.3851 28.0388 15.0263 28.08C15.007 27.1719 15.0868 26.2606 14.9833 25.355C15.0097 25.3513 15.0632 25.3438 15.0895 25.34C17.829 24.85 20.55 24.3106 23.2833 23.8031C23.629 21.0406 24.0123 18.2794 24.2553 15.5113C21.9307 15.52 19.6053 15.515 17.2807 15.5219C16.9421 15.5231 16.6035 15.5219 16.2667 15.5044C17.5175 15.0456 18.8333 14.6819 20.1175 14.2725C21.35 13.8744 22.5974 13.5013 23.8342 13.1106C24.0728 13.0325 24.3272 12.9675 24.5368 12.8513C24.6193 12.6356 24.6149 12.41 24.6474 12.1894C24.7184 11.4894 24.8447 10.7931 24.8921 10.0925C21.6 10.0738 18.3079 10.09 15.0149 10.0775C15.0518 9.2275 15.0149 8.37625 15.036 7.52563Z" fill="#29A9DF"/>
<path d="M15.0526 18.1388C16.6421 18.1194 18.2325 18.15 19.8228 18.1425C19.7342 19.3006 19.5991 20.4569 19.5149 21.615C18.5404 21.8419 17.5509 22.0338 16.5684 22.2438C16.0448 22.3575 15.507 22.4475 15.0088 22.6144C15.0728 21.1231 14.9877 19.63 15.0526 18.1388Z" fill="#29A9DF"/>
<path d="M4.7298 10.0781C8.15787 10.0756 11.5868 10.0687 15.0149 10.0775C15.0596 12.765 15.0035 15.4525 15.0526 18.1388C13.6903 18.16 12.3272 18.1406 10.9649 18.1456C9.26488 18.1475 7.56576 18.1669 5.86576 18.1712C5.77541 17.2662 5.57015 16.3644 5.54646 15.4575C5.76138 15.3463 6.01839 15.2887 6.25874 15.2125C9.06138 14.3394 11.8859 13.4994 14.6763 12.6075C11.4868 12.5394 8.29296 12.6269 5.10348 12.5425C4.94383 11.7237 4.78857 10.9037 4.7298 10.0781Z" fill="#CFCFCF"/>
<path d="M6.11926 19.755C7.14996 19.7437 8.18067 19.7506 9.21049 19.7463C9.42277 19.7488 9.64032 19.7444 9.84558 19.7894C9.93505 20.5056 10.0052 21.2237 10.1061 21.9394C10.8158 22.0862 11.5535 22.1444 12.2736 22.2563C13.1868 22.3719 14.0921 22.5175 15.0087 22.6144C15.0965 23.5219 14.9429 24.4356 15.0894 25.34C15.0631 25.3437 15.0096 25.3512 14.9833 25.355C14.7912 25.3662 14.6044 25.3175 14.4193 25.2894C12.8631 24.9931 11.2903 24.7425 9.73681 24.4412C8.72277 24.2444 7.70523 24.0594 6.68944 23.8706C6.39382 22.5069 6.22014 21.1319 6.11926 19.755Z" fill="#CFCFCF"/>
<path d="M15.0149 10.0775C18.3079 10.09 21.6 10.0737 24.8921 10.0925C24.8448 10.7931 24.7184 11.4894 24.6474 12.1894C24.6149 12.41 24.6193 12.6356 24.5369 12.8512C24.3272 12.9675 24.0728 13.0325 23.8342 13.1106C22.5974 13.5012 21.35 13.8744 20.1176 14.2725C18.8333 14.6819 17.5176 15.0456 16.2667 15.5044C16.6035 15.5219 16.9421 15.5231 17.2807 15.5219C19.6053 15.515 21.9307 15.52 24.2553 15.5112C24.0123 18.2794 23.629 21.0406 23.2833 23.8031C20.55 24.3106 17.829 24.85 15.0895 25.34C14.943 24.4356 15.0965 23.5219 15.0088 22.6144C15.507 22.4475 16.0448 22.3575 16.5684 22.2437C17.5509 22.0337 18.5404 21.8419 19.5149 21.615C19.5991 20.4569 19.7342 19.3006 19.8228 18.1425C18.2325 18.15 16.6421 18.1194 15.0526 18.1387C15.0035 15.4525 15.0597 12.765 15.0149 10.0775Z" fill="white"/>
</g>
<defs>
<clipPath id="clip0_105_89">
<rect width="30" height="30" fill="white"/>
</clipPath>
</defs>
</svg>
