<svg width="30" height="30" viewBox="0 0 30 30" fill="none" xmlns="http://www.w3.org/2000/svg">
<path d="M2.73021 27.5911L0 5.90121H30L27.267 27.5876L14.9816 30L2.73021 27.5911Z" fill="#EFC725"/>
<path d="M14.9748 28.1292L24.902 26.1799L27.2376 7.64791H14.9748V28.1292Z" fill="#FBDE34"/>
<path d="M14.969 22.6028L14.9527 22.6061L10.7699 21.806L10.5024 19.6845H8.47009H6.73242L7.25859 23.8613L14.9517 25.374L14.969 25.3705V22.6028Z" fill="#EBEBEB"/>
<path d="M15.4749 18.353V15.6929H10.8502L11.3925 11.518L15.4853 11.4408L15.4749 8.67453H7.99698L7.71922 10.6354L6.83651 17.6387L6.74493 18.353H7.75704H15.4749Z" fill="#EBEBEB"/>
<path d="M15.4495 11.4445L15.466 11.4412L19.5679 11.6162L19.916 14.3627H21.9484H23.6861L23.0292 9.2231L15.4669 8.67332L15.4495 8.67675V11.4445Z" fill="white"/>
<path d="M23.299 11.4526L22.9771 8.67453H15.0494V10.3999V11.4457V11.4526H23.299Z" fill="white"/>
<path d="M14.956 15.6942V18.3543H19.5807L19.1448 21.8042L14.956 22.6051V25.3727L22.6554 23.8613L22.7118 23.4119L23.5945 16.4085L23.6861 15.6942H22.674H14.956Z" fill="white"/>
<path d="M20.2894 1.11056H17.7994L20.389 3.1008V4.04805H15.0554V2.93892H17.6444L15.0554 0.948756V0H20.2894V1.11056Z" fill="#151515"/>
<path d="M14.1055 0.00178099V4.04633H9.51215V2.70946H12.1963V0.00178099H14.1053H14.1055Z" fill="#020202"/>
</svg>
