<svg width="65" height="65" viewBox="0 0 65 65" fill="none" xmlns="http://www.w3.org/2000/svg">
<g opacity="0.65">
<g clip-path="url(#clip0_181_369)">
<g filter="url(#filter0_d_181_369)">
<path d="M64.7432 0.257568H0.257385V64.7428H64.7432V0.257568Z" fill="#1ECC1E"/>
<path d="M64.7432 0.257568H0.257385V64.7428H64.7432V0.257568Z" stroke="#1ECC1E" stroke-width="7.9141"/>
</g>
<path d="M42.3531 53.741C44.181 53.1713 46.1763 52.398 46.848 51.9989C47.2993 51.7308 47.363 51.6403 47.2068 51.4891C46.0754 50.3932 38.1165 43.4198 38.0463 43.4633C37.995 43.495 37.8651 43.9921 37.7576 44.5679C37.5455 45.7045 37.3457 45.9645 36.6847 45.9642C36.1405 45.9642 35.7816 45.6591 35.2599 44.7538C35.0326 44.3592 34.6649 43.8037 34.4429 43.5193C34.221 43.235 33.7724 42.5247 33.4462 41.9408C33.1199 41.3569 32.5465 40.3949 32.1719 39.803C31.3133 38.446 30.3142 36.7917 29.9361 36.1012C29.7761 35.8089 29.3813 35.213 29.0588 34.7771C28.7362 34.3412 28.325 33.6955 28.1449 33.3421C27.9649 32.9888 27.4487 32.1508 26.9979 31.48C26.5471 30.8091 26.0054 29.919 25.7942 29.5021C25.5829 29.0851 25.195 28.4071 24.9321 27.9953C24.3275 27.0486 23.6237 25.6416 23.5021 25.1368C23.428 24.8291 23.4904 24.672 23.8043 24.3766C24.2276 23.9783 24.2554 23.9784 25.6021 24.3841C26.0576 24.5214 26.4598 24.6042 26.4959 24.5681C26.5608 24.5032 23.479 12.5581 23.3688 12.4482C23.2881 12.3674 19.6797 15.3979 19.6797 15.5466C19.6797 15.614 19.3657 15.9816 18.9818 16.3636C18.598 16.7456 18.0532 17.4242 17.7712 17.8717C17.3267 18.5771 17.2375 18.8728 17.0999 20.0961C16.663 23.9782 17.687 29.7172 19.6305 34.2783C20.6767 36.7337 21.3053 37.9648 22.0482 39.013C22.3842 39.487 22.8363 40.2299 23.0528 40.664C24.2164 42.9963 27.8835 47.2482 30.4426 49.2324C32.2084 50.6016 35.9557 53.0502 36.8218 53.401C39.3547 54.4266 40.0223 54.4677 42.3533 53.7413L42.3531 53.741ZM48.8129 49.3403C49.362 47.9909 49.3773 47.9121 49.1359 47.6843C48.9319 47.4919 42.502 41.8931 41.6146 41.1353C41.4073 40.9582 41.1988 41.0236 39.9089 41.6709C38.6714 42.292 38.4708 42.4386 38.6384 42.6001C39.2505 43.1897 48.16 50.8335 48.1949 50.7989C48.2177 50.776 48.4959 50.1197 48.8129 49.3405L48.8129 49.3403ZM29.0525 23.534C29.6609 23.0707 30.157 22.6832 30.1548 22.673C29.9898 21.9038 27.5851 12.4995 27.5427 12.4568C27.4603 12.3743 24.3909 11.9439 24.3285 12.0061C24.2895 12.045 25.1322 15.3028 27.4455 24.0572C27.6094 24.6774 27.5075 24.7106 29.0524 23.534L29.0525 23.534Z" fill="white"/>
</g>
</g>
<defs>
<filter id="filter0_d_181_369" x="-7.69968" y="-3.69946" width="80.4" height="80.3993" filterUnits="userSpaceOnUse" color-interpolation-filters="sRGB">
<feFlood flood-opacity="0" result="BackgroundImageFix"/>
<feColorMatrix in="SourceAlpha" type="matrix" values="0 0 0 0 0 0 0 0 0 0 0 0 0 0 0 0 0 0 127 0" result="hardAlpha"/>
<feOffset dy="4"/>
<feGaussianBlur stdDeviation="2"/>
<feComposite in2="hardAlpha" operator="out"/>
<feColorMatrix type="matrix" values="0 0 0 0 0 0 0 0 0 0 0 0 0 0 0 0 0 0 0.25 0"/>
<feBlend mode="normal" in2="BackgroundImageFix" result="effect1_dropShadow_181_369"/>
<feBlend mode="normal" in="SourceGraphic" in2="effect1_dropShadow_181_369" result="shape"/>
</filter>
<clipPath id="clip0_181_369">
<rect width="65" height="65" rx="10" fill="white"/>
</clipPath>
</defs>
</svg>
