<svg width="65" height="65" viewBox="0 0 65 65" fill="none" xmlns="http://www.w3.org/2000/svg">
<g clip-path="url(#clip0_186_467)">
<path d="M65 0H0V65H65V0Z" fill="#D7E3F4"/>
<g clip-path="url(#clip1_186_467)">
<path d="M12.4789 12.9991C10.8472 12.9991 9.53362 14.2161 9.53362 15.7276V22.3443V26.9444V41.2772C9.53362 42.7888 10.8472 44.0057 12.4789 44.0057H53.5976C55.2292 44.0057 56.5428 42.7888 56.5428 41.2772V22.3441C56.5428 20.8325 55.2292 19.6156 53.5976 19.6156H36.3502C35.2386 19.454 34.9076 18.6813 34.8223 18.0724V17.305V15.7276C34.8223 14.2161 33.5087 12.9991 31.8771 12.9991H12.4796H12.4789Z" fill="#6699CC"/>
<path d="M58.1019 21.9907H7.8971C6.84915 21.9907 5.99962 22.7358 5.99962 23.655V51.3332C5.99962 52.2523 6.84915 52.9974 7.8971 52.9974H58.1019C59.1499 52.9974 59.9994 52.2523 59.9994 51.3332V23.655C59.9994 22.7358 59.1499 21.9907 58.1019 21.9907Z" fill="#336699"/>
<path d="M12.4789 13.2722C10.8472 13.2722 9.53362 14.4891 9.53362 16.0007V22.6173V27.2175V41.5503C9.53362 43.0619 10.8472 44.2788 12.4789 44.2788H53.5976C55.2292 44.2788 56.5428 43.0619 56.5428 41.5503V22.6172C56.5428 21.1056 55.2292 19.8887 53.5976 19.8887H36.3502C35.2386 19.7271 34.9076 18.9544 34.8223 18.3455V17.5781V16.0007C34.8223 14.4891 33.5087 13.2722 31.8771 13.2722H12.4796H12.4789Z" fill="url(#paint0_linear_186_467)"/>
<path d="M58.1019 21.7178H7.8971C6.84915 21.7178 5.99962 22.4629 5.99962 23.382V51.0602C5.99962 51.9794 6.84915 52.7245 7.8971 52.7245H58.1019C59.1499 52.7245 59.9994 51.9794 59.9994 51.0602V23.382C59.9994 22.4629 59.1499 21.7178 58.1019 21.7178Z" fill="url(#paint1_linear_186_467)"/>
</g>
</g>
<defs>
<linearGradient id="paint0_linear_186_467" x1="32.777" y1="13.5819" x2="33.0007" y2="44.2792" gradientUnits="userSpaceOnUse">
<stop stop-color="#AACCEE"/>
<stop offset="1" stop-color="#336699"/>
</linearGradient>
<linearGradient id="paint1_linear_186_467" x1="32.9989" y1="21.7169" x2="32.9989" y2="52.7232" gradientUnits="userSpaceOnUse">
<stop stop-color="#B3DDFD"/>
<stop offset="1" stop-color="#6699CC"/>
</linearGradient>
<clipPath id="clip0_186_467">
<rect width="65" height="65" rx="10" fill="white"/>
</clipPath>
<clipPath id="clip1_186_467">
<rect width="54" height="40" fill="white" transform="translate(6 13)"/>
</clipPath>
</defs>
</svg>
