<svg width="65" height="65" viewBox="0 0 65 65" fill="none" xmlns="http://www.w3.org/2000/svg">
<g opacity="0.65">
<g clip-path="url(#clip0_181_357)">
<g filter="url(#filter0_d_181_357)">
<path d="M64.7432 0.257568H0.25737V64.7428H64.7432V0.257568Z" fill="#FCFEFF"/>
<path d="M64.7432 0.257568H0.25737V64.7428H64.7432V0.257568Z" stroke="#FCFEFF" stroke-width="7.9141"/>
</g>
<path d="M49.184 21.9587H16.4023C14.0803 21.9587 12.1979 23.8411 12.1979 26.1631V42.5973C12.1979 44.9193 14.0803 46.8017 16.4023 46.8017H49.184C51.506 46.8017 53.3884 44.9193 53.3884 42.5973V26.1631C53.3884 23.8411 51.506 21.9587 49.184 21.9587Z" fill="#1C1717" stroke="#1C1717" stroke-width="8.76806"/>
<path d="M38.4058 18.0945H26.6262C24.9811 18.0945 23.6474 19.4281 23.6474 21.0732C23.6474 22.7183 24.9811 24.0519 26.6262 24.0519H38.4058C40.0509 24.0519 41.3845 22.7183 41.3845 21.0732C41.3845 19.4281 40.0509 18.0945 38.4058 18.0945Z" fill="#1C1717" stroke="#1C1717" stroke-width="8.24832"/>
<g filter="url(#filter1_d_181_357)">
<path d="M39.8882 34.6233C39.8882 38.5086 36.7386 41.6581 32.8533 41.6581C28.9681 41.6581 25.8185 38.5086 25.8185 34.6233C25.8185 30.7381 28.9681 27.5885 32.8533 27.5885C36.7375 27.5885 39.8867 30.7364 39.8882 34.6206" fill="#FCFEFF"/>
<path d="M39.8882 34.6233C39.8882 38.5086 36.7386 41.6581 32.8533 41.6581C28.9681 41.6581 25.8185 38.5086 25.8185 34.6233C25.8185 30.7381 28.9681 27.5885 32.8533 27.5885C36.7375 27.5885 39.8867 30.7364 39.8882 34.6206" stroke="#FCFEFF" stroke-width="14.7825"/>
</g>
<path d="M36.6233 34.5483C36.6233 36.6309 34.935 38.3193 32.8523 38.3193C30.7697 38.3193 29.0813 36.6309 29.0813 34.5483C29.0813 32.4656 30.7697 30.7772 32.8523 30.7772C34.9344 30.7772 36.6225 32.4647 36.6233 34.5468" fill="#1C1717"/>
<path d="M36.6233 34.5483C36.6233 36.6309 34.935 38.3193 32.8523 38.3193C30.7697 38.3193 29.0813 36.6309 29.0813 34.5483C29.0813 32.4656 30.7697 30.7772 32.8523 30.7772C34.9344 30.7772 36.6225 32.4647 36.6233 34.5468" stroke="#1C1717" stroke-width="11.6032"/>
</g>
</g>
<defs>
<filter id="filter0_d_181_357" x="-7.69968" y="-3.69946" width="80.4" height="80.3993" filterUnits="userSpaceOnUse" color-interpolation-filters="sRGB">
<feFlood flood-opacity="0" result="BackgroundImageFix"/>
<feColorMatrix in="SourceAlpha" type="matrix" values="0 0 0 0 0 0 0 0 0 0 0 0 0 0 0 0 0 0 127 0" result="hardAlpha"/>
<feOffset dy="4"/>
<feGaussianBlur stdDeviation="2"/>
<feComposite in2="hardAlpha" operator="out"/>
<feColorMatrix type="matrix" values="0 0 0 0 0 0 0 0 0 0 0 0 0 0 0 0 0 0 0.25 0"/>
<feBlend mode="normal" in2="BackgroundImageFix" result="effect1_dropShadow_181_357"/>
<feBlend mode="normal" in="SourceGraphic" in2="effect1_dropShadow_181_357" result="shape"/>
</filter>
<filter id="filter1_d_181_357" x="14.4273" y="20.1973" width="36.8521" height="36.8522" filterUnits="userSpaceOnUse" color-interpolation-filters="sRGB">
<feFlood flood-opacity="0" result="BackgroundImageFix"/>
<feColorMatrix in="SourceAlpha" type="matrix" values="0 0 0 0 0 0 0 0 0 0 0 0 0 0 0 0 0 0 127 0" result="hardAlpha"/>
<feOffset dy="4"/>
<feGaussianBlur stdDeviation="2"/>
<feComposite in2="hardAlpha" operator="out"/>
<feColorMatrix type="matrix" values="0 0 0 0 0 0 0 0 0 0 0 0 0 0 0 0 0 0 0.25 0"/>
<feBlend mode="normal" in2="BackgroundImageFix" result="effect1_dropShadow_181_357"/>
<feBlend mode="normal" in="SourceGraphic" in2="effect1_dropShadow_181_357" result="shape"/>
</filter>
<clipPath id="clip0_181_357">
<rect width="65" height="65" rx="10" fill="white"/>
</clipPath>
</defs>
</svg>
