<svg width="15" height="15" viewBox="0 0 30 29" fill="none" xmlns="http://www.w3.org/2000/svg">
<path d="M2.11965 3.24098L26.7505 27.8719C27.3685 28.4899 28.3453 28.5163 28.9308 27.9308C29.5163 27.3453 29.4899 26.3686 28.8719 25.7505L4.24097 1.11966C3.62296 0.501653 2.6462 0.475254 2.06072 1.06074C1.47524 1.64622 1.50164 2.62297 2.11965 3.24098Z" fill="white"/>
<path d="M26.2549 1.1238L1.62398 25.7547C1.00597 26.3727 0.97957 27.3494 1.56505 27.9349C2.15054 28.5204 3.12729 28.494 3.7453 27.876L28.3762 3.24512C28.9942 2.62711 29.0206 1.65036 28.4351 1.06487C27.8496 0.479387 26.8729 0.505786 26.2549 1.1238Z" fill="white"/>
</svg>
